<!-- Original Uwu Browser artwork by 2q9e. Upstream source attribution is in README.md. -->
<svg xmlns="http://www.w3.org/2000/svg" width="342" height="64" viewBox="0 0 342 64" ><svg x="1" y="1" width="62" height="62" viewBox="0 0 256 256">
<defs>
    <linearGradient id="background" x1="0" y1="0" x2="1" y2="1">
      <stop offset="0" stop-color="#FCE6EE"/>
      <stop offset="1" stop-color="#F4B8CC"/>
    </linearGradient>
    <linearGradient id="face" x1="0" y1="0" x2="0" y2="1">
      <stop offset="0" stop-color="#FFF8FB"/>
      <stop offset="1" stop-color="#FFEAF1"/>
    </linearGradient>
  </defs>
  <rect width="256" height="256" fill="url(#background)"/>
  <rect x="37" y="40" width="182" height="178" rx="27" fill="#FFF9FB" stroke="#9E4F6C" stroke-width="12"/>
  <path d="M43 91h170" stroke="#9E4F6C" stroke-width="12"/>
  <circle cx="65" cy="66" r="6" fill="#B95376"/>
  <circle cx="85" cy="66" r="6" fill="#D67A98"/>
  <circle cx="105" cy="66" r="6" fill="#EAA7BC"/>
  <path d="m85 162 12-34 25 18a31 31 0 0 1 14 0l25-18 11 34c0 22-19 39-43 39s-44-17-44-39Z" fill="url(#face)" stroke="#9E4F6C" stroke-width="8" stroke-linejoin="round"/>
  <path d="M107 159c4-6 11-6 15 0m12 0c4-6 11-6 15 0" fill="none" stroke="#713B52" stroke-width="5" stroke-linecap="round"/>
  <path d="m128 166 5 4-5 4-5-4 5-4Zm0 8c0 7-8 10-13 5m13-5c0 7 8 10 13 5" fill="none" stroke="#713B52" stroke-width="4" stroke-linecap="round" stroke-linejoin="round"/>
  <path d="m91 166-10-3m10 10-11 1m95-8 10-3m-10 10 11 1" fill="none" stroke="#B56C86" stroke-width="4" stroke-linecap="round"/>
</svg><text x="74" y="44" font-family="DejaVu Sans, Arial, sans-serif" font-size="36" font-weight="600" fill="#9E4F6C">Uwu Browser</text></svg>
